# xmcd CD database file
#
# Track frame offsets:
#	150
#	16425
#	30455
#	60475
#	76487
#	92035
#	115512
#	129432
#	145282
#	162850
#
# Disc length: 2392 seconds
#
# Revision: 3
# Processed by: cddbd v1.5.2PL0 Copyright (c) Steve Scherf et al.
# Submitted via: CDex 1.84
#
DISCID=7509560a
DTITLE=Merle Haggard and Willie Nelson - Seashores Of Old Mexico
DYEAR=1987
DGENRE=Country
TTITLE0=Seashores Of Old Mexico
TTITLE1=Without You On My Side
TTITLE2=When Times Were Good
TTITLE3=Jimmy The Broom
TTITLE4=Yesterdaqy
TTITLE5=If I Could Only Fly
TTITLE6=Shotgun And A Pistol
TTITLE7=Love Makes A Fool Of Us All
TTITLE8=Why Do I Have To Choose
TTITLE9=Silver Wings
EXTD=YEAR: 1987
EXTT0=
EXTT1=
EXTT2=
EXTT3=
EXTT4=
EXTT5=
EXTT6=
EXTT7=
EXTT8=
EXTT9=
PLAYORDER=
